HIERARCHY
ROOT Hips
{
  OFFSET 5.84602e-005 68.8428 3.50346
  CHANNELS 6 Xposition Yposition Zposition Zrotation Xrotation Yrotation
  JOINT Spine
  {
    OFFSET 0 8.597 -4.6522
    CHANNELS 3 Zrotation Xrotation Yrotation
    JOINT Spine1
    {
      OFFSET 0 7.8454 0.4098
      CHANNELS 3 Zrotation Xrotation Yrotation
      JOINT Spine2
      {
        OFFSET 0 9.7078 -2.1609
        CHANNELS 3 Zrotation Xrotation Yrotation
        JOINT Neck
        {
          OFFSET 0 21.8761 -0.4549
          CHANNELS 3 Zrotation Xrotation Yrotation
          JOINT Head
          {
            OFFSET 0 12.3537 3.3602
            CHANNELS 3 Zrotation Xrotation Yrotation
            End Site
            {
              OFFSET 0.0001 18.9506 0.5657
            }
          }
        }
        JOINT LeftShoulder
        {
          OFFSET 2.2086 21.1115 7.2329
          CHANNELS 3 Zrotation Xrotation Yrotation
          JOINT LeftArm
          {
            OFFSET 13.1193 3.0282 -4.8998
            CHANNELS 3 Zrotation Xrotation Yrotation
            JOINT LeftForeArm
            {
              OFFSET 27.4081 -0.0973053 -0.2375
              CHANNELS 3 Zrotation Xrotation Yrotation
              JOINT LeftHand
              {
                OFFSET 22.8641 0.0662994 -0.1369
                CHANNELS 3 Zrotation Xrotation Yrotation
                JOINT LeftHandIndex1
                {
                  OFFSET 8.8614 0.775009 2.4612
                  CHANNELS 3 Zrotation Xrotation Yrotation
                  JOINT LeftHandIndex2
                  {
                    OFFSET 3.3146 -0.808304 0.5841
                    CHANNELS 3 Zrotation Xrotation Yrotation
                    JOINT LeftHandIndex3
                    {
                      OFFSET 2.2628 -0.552002 0.3989
                      CHANNELS 3 Zrotation Xrotation Yrotation
                      End Site
                      {
                        OFFSET 1.6102 -0.4807 0.2612
                      }
                    }
                  }
                }
                JOINT LeftHandMiddle1
                {
                  OFFSET 8.9937 0.895004 0.2143
                  CHANNELS 3 Zrotation Xrotation Yrotation
                  JOINT LeftHandMiddle2
                  {
                    OFFSET 4.0984 0.0113983 -0.0242
                    CHANNELS 3 Zrotation Xrotation Yrotation
                    JOINT LeftHandMiddle3
                    {
                      OFFSET 2.2716 0.00689697 -0.0138001
                      CHANNELS 3 Zrotation Xrotation Yrotation
                      End Site
                      {
                        OFFSET 2.0404 -0.1441 0.0027
                      }
                    }
                  }
                }
                JOINT LeftHandRing1
                {
                  OFFSET 8.5234 0.597198 -2.0164
                  CHANNELS 3 Zrotation Xrotation Yrotation
                  JOINT LeftHandRing2
                  {
                    OFFSET 3.7188 -0.188293 -0.2328
                    CHANNELS 3 Zrotation Xrotation Yrotation
                    JOINT LeftHandRing3
                    {
                      OFFSET 2.1191 -0.106598 -0.1332
                      CHANNELS 3 Zrotation Xrotation Yrotation
                      End Site
                      {
                        OFFSET 1.8737 -0.2304 -0.0886
                      }
                    }
                  }
                }
                JOINT LeftHandPinky1
                {
                  OFFSET 7.9094 -0.601089 -3.4825
                  CHANNELS 3 Zrotation Xrotation Yrotation
                  JOINT LeftHandPinky2
                  {
                    OFFSET 2.2874 -0.477005 -0.6314
                    CHANNELS 3 Zrotation Xrotation Yrotation
                    JOINT LeftHandPinky3
                    {
                      OFFSET 1.6774 -0.349396 -0.4633
                      CHANNELS 3 Zrotation Xrotation Yrotation
                      End Site
                      {
                        OFFSET 1.4888 -0.4091 -0.3416
                      }
                    }
                  }
                }
                JOINT LeftHandThumb1
                {
                  OFFSET 1.833 -1.3875 1.3896
                  CHANNELS 3 Zrotation Xrotation Yrotation
                  JOINT LeftHandThumb2
                  {
                    OFFSET 3.4129 -1.121 2.5732
                    CHANNELS 3 Zrotation Xrotation Yrotation
                    JOINT LeftHandThumb3
                    {
                      OFFSET 2.2474 -0.804199 1.6192
                      CHANNELS 3 Zrotation Xrotation Yrotation
                      End Site
                      {
                        OFFSET 1.6527 -0.5689 1.1317
                      }
                    }
                  }
                }
              }
            }
          }
        }
        JOINT RightShoulder
        {
          OFFSET -2.2086 21.1115 7.2329
          CHANNELS 3 Zrotation Xrotation Yrotation
          JOINT RightArm
          {
            OFFSET -13.1216 3.0287 -4.9007
            CHANNELS 3 Zrotation Xrotation Yrotation
            JOINT RightForeArm
            {
              OFFSET -27.4081 -0.0973053 -0.2375
              CHANNELS 3 Zrotation Xrotation Yrotation
              JOINT RightHand
              {
                OFFSET -22.8641 0.0664063 -0.1369
                CHANNELS 3 Zrotation Xrotation Yrotation
                JOINT RightHandIndex1
                {
                  OFFSET -8.8614 0.774994 2.4612
                  CHANNELS 3 Zrotation Xrotation Yrotation
                  JOINT RightHandIndex2
                  {
                    OFFSET -3.3146 -0.808304 0.5841
                    CHANNELS 3 Zrotation Xrotation Yrotation
                    JOINT RightHandIndex3
                    {
                      OFFSET -2.2628 -0.552002 0.3989
                      CHANNELS 3 Zrotation Xrotation Yrotation
                      End Site
                      {
                        OFFSET -1.6102 -0.4807 0.2612
                      }
                    }
                  }
                }
                JOINT RightHandMiddle1
                {
                  OFFSET -8.9937 0.894989 0.2143
                  CHANNELS 3 Zrotation Xrotation Yrotation
                  JOINT RightHandMiddle2
                  {
                    OFFSET -4.0984 0.0113983 -0.0242
                    CHANNELS 3 Zrotation Xrotation Yrotation
                    JOINT RightHandMiddle3
                    {
                      OFFSET -2.2716 0.00691223 -0.0138001
                      CHANNELS 3 Zrotation Xrotation Yrotation
                      End Site
                      {
                        OFFSET -2.0404 -0.1441 0.0027
                      }
                    }
                  }
                }
                JOINT RightHandRing1
                {
                  OFFSET -8.5234 0.597198 -2.0164
                  CHANNELS 3 Zrotation Xrotation Yrotation
                  JOINT RightHandRing2
                  {
                    OFFSET -3.7188 -0.188309 -0.2328
                    CHANNELS 3 Zrotation Xrotation Yrotation
                    JOINT RightHandRing3
                    {
                      OFFSET -2.1191 -0.106598 -0.1332
                      CHANNELS 3 Zrotation Xrotation Yrotation
                      End Site
                      {
                        OFFSET -1.8737 -0.2304 -0.0886
                      }
                    }
                  }
                }
                JOINT RightHandPinky1
                {
                  OFFSET -7.9094 -0.601105 -3.4825
                  CHANNELS 3 Zrotation Xrotation Yrotation
                  JOINT RightHandPinky2
                  {
                    OFFSET -2.2874 -0.477005 -0.6314
                    CHANNELS 3 Zrotation Xrotation Yrotation
                    JOINT RightHandPinky3
                    {
                      OFFSET -1.6774 -0.349396 -0.4633
                      CHANNELS 3 Zrotation Xrotation Yrotation
                      End Site
                      {
                        OFFSET -1.4888 -0.4091 -0.3416
                      }
                    }
                  }
                }
                JOINT RightHandThumb1
                {
                  OFFSET -1.833 -1.38751 1.3896
                  CHANNELS 3 Zrotation Xrotation Yrotation
                  JOINT RightHandThumb2
                  {
                    OFFSET -3.41299 -1.12099 2.5732
                    CHANNELS 3 Zrotation Xrotation Yrotation
                    JOINT RightHandThumb3
                    {
                      OFFSET -2.24741 -0.804108 1.6192
                      CHANNELS 3 Zrotation Xrotation Yrotation
                      End Site
                      {
                        OFFSET -1.6527 -0.5689 1.1317
                      }
                    }
                  }
                }
              }
            }
          }
        }
      }
    }
  }
  JOINT RightUpLeg
  {
    OFFSET -9.1966 3.8861 -0.7581
    CHANNELS 3 Zrotation Xrotation Yrotation
    JOINT RightLeg
    {
      OFFSET -0.7359 -41.0265 0
      CHANNELS 3 Zrotation Xrotation Yrotation
      JOINT RightFoot
      {
        OFFSET 0 -40.2855 0
        CHANNELS 3 Zrotation Xrotation Yrotation
        JOINT RightToeBase
        {
          OFFSET 0 -5.6122 11.7359
          CHANNELS 3 Zrotation Xrotation Yrotation
          End Site
          {
            OFFSET 0 0 7.8731
          }
        }
      }
    }
  }
  JOINT LeftUpLeg
  {
    OFFSET 9.1965 3.8864 -0.7581
    CHANNELS 3 Zrotation Xrotation Yrotation
    JOINT LeftLeg
    {
      OFFSET 0.7359 -41.0268 0
      CHANNELS 3 Zrotation Xrotation Yrotation
      JOINT LeftFoot
      {
        OFFSET 0 -40.2855 0
        CHANNELS 3 Zrotation Xrotation Yrotation
        JOINT LeftToeBase
        {
          OFFSET 0 -5.6122 11.7359
          CHANNELS 3 Zrotation Xrotation Yrotation
          End Site
          {
            OFFSET 0 0 7.8731
          }
        }
      }
    }
  }
}
MOTION
Frames:	4
Frame Time:	0.0333333
26.1503 12.1464 0.502439 90.0018 -4.00327 90.0018 1.95201 2.98137 0.409106 3.89049 5.97483 0.71772 3.89051 5.97483 0.717733 -1.03937e-005 27.9975 3.50325e-005 1.88751e-006 15.997 -7.7412e-007 2.64956e-005 1.05111e-005 9.84336e-006 -78.6817 19.4649 13.7995 17.3576 11.1293 -44.5242 -8.74775 -36.4365 -0.246241 -1.42978e-007 -1.82761e-008 -1.57329e-007 3.18055e-015 -1.59028e-015 -3.47873e-015 1.42978e-007 1.82761e-008 1.57329e-007 -1.42978e-007 -1.82761e-008 -1.57329e-007 -0.0146306 -9.46752e-005 1.14106e-006 1.42977e-007 1.8256e-008 1.57331e-007 -1.42978e-007 -1.82761e-008 -1.57329e-007 -0.018755 -0.00118423 5.94628e-005 1.42979e-007 1.82502e-008 1.5733e-007 -1.42978e-007 -1.82761e-008 -1.57329e-007 -0.0122792 -0.00324963 0.000677676 1.42982e-007 1.82582e-008 1.57326e-007 -1.42978e-007 -1.82761e-008 -1.57329e-007 3.18055e-015 -1.59028e-015 -3.47873e-015 1.42978e-007 1.82761e-008 1.57329e-007 2.13645e-005 -10.0022 5.44188e-006 35.2101 -40.0617 60.9554 8.26489 -0.0095761 127.284 -10.0001 -0.000887116 14.9991 -5.60111e-007 -8.5069e-007 -3.37579e-006 9.2872e-007 -5.67004e-007 -6.74401e-007 9.2872e-007 -5.67004e-007 -6.74401e-007 -5.60111e-007 -8.5069e-007 -3.37579e-006 0.0150107 -8.54624e-005 5.65469e-006 9.28714e-007 -5.67092e-007 -6.74328e-007 -5.60111e-007 -8.5069e-007 -3.37579e-006 0.0190225 -0.00119613 -6.14295e-005 9.28707e-007 -5.67115e-007 -6.74317e-007 -5.60111e-007 -8.5069e-007 -3.37579e-006 0.0122523 -0.00324009 -0.000672584 9.287e-007 -5.67069e-007 -6.74367e-007 -5.60111e-007 -8.5069e-007 -3.37579e-006 9.2872e-007 -5.67004e-007 -6.74401e-007 9.2872e-007 -5.67004e-007 -6.74401e-007 -19.2099 -29.5923 -24.9979 179.999 85.2695 177.267 -2.88377 22.1024 -1.25895 -2.2191e-006 -2.84953e-006 -8.08979e-007 12.3806 -26.0415 7.84921 -0.0864203 63.2617 11.9792 9.56862 43.5504 -4.61511 -9.59569e-008 1.27025e-007 1.68241e-008 
26.1503 12.1462 0.502936 90.0018 -4.00327 90.0018 1.95201 2.98137 0.409106 3.89049 5.97483 0.71772 3.89051 5.97483 0.717733 1.12978e-005 27.9976 1.06766e-005 1.82501e-006 15.997 1.12033e-006 2.64956e-005 1.05111e-005 9.84336e-006 -78.6817 19.4649 13.7995 17.2065 11.2892 -44.3251 -9.2554 -35.3443 -0.402372 -1.41538e-007 -1.71395e-008 -1.58756e-007 1.41538e-007 1.71395e-008 1.58756e-007 -1.41538e-007 -1.71395e-008 -1.58756e-007 -1.41538e-007 -1.71395e-008 -1.58756e-007 -0.0145957 -8.95896e-005 1.40854e-006 -1.41537e-007 -1.71193e-008 -1.58758e-007 -1.41538e-007 -1.71395e-008 -1.58756e-007 -0.0187607 -0.00117512 5.95441e-005 -1.15559e-007 5.46914e-007 7.58776e-009 -1.41538e-007 -1.71395e-008 -1.58756e-007 -0.0122836 -0.00325929 0.000676873 -1.41542e-007 -1.71215e-008 -1.58754e-007 -1.41538e-007 -1.71395e-008 -1.58756e-007 1.41538e-007 1.71395e-008 1.58756e-007 -1.41538e-007 -1.71395e-008 -1.58756e-007 2.13645e-005 -10.0022 5.44188e-006 35.2101 -40.0617 60.9554 8.59069 0.238561 127.284 -10.0001 -0.000875981 14.9991 4.07966e-006 -8.54741e-008 4.60393e-006 1.25179e-006 1.3223e-006 4.61172e-007 1.34473e-006 3.81531e-007 2.8105e-006 4.07966e-006 -8.54741e-008 4.60393e-006 0.0149724 -9.59118e-005 3.13855e-007 1.34453e-006 3.81899e-007 2.81045e-006 4.07966e-006 -8.54741e-008 4.60393e-006 0.0190054 -0.00119818 -6.28513e-005 6.35602e-007 1.69947e-006 9.12911e-007 4.07966e-006 -8.54741e-008 4.60393e-006 0.0122362 -0.00323702 -0.000676063 1.34464e-006 3.81881e-007 2.81043e-006 4.07966e-006 -8.54741e-008 4.60393e-006 1.25179e-006 1.3223e-006 4.61172e-007 1.34473e-006 3.81531e-007 2.8105e-006 -18.7289 -29.8327 -24.4332 179.999 85.2598 177.266 -2.88442 22.0936 -1.25975 -8.09848e-007 -3.84368e-007 -2.72847e-006 12.3963 -26.0451 7.85226 -0.102222 63.3634 11.7027 9.59196 43.5572 -4.62386 5.54538e-007 -5.57004e-007 9.53996e-006 
26.1503 12.1461 0.503344 90.0018 -4.00327 90.0018 1.95201 2.98137 0.409106 3.89049 5.97483 0.71772 3.89051 5.97483 0.717733 -1.03937e-005 27.9975 3.50325e-005 1.88751e-006 15.997 -7.7412e-007 2.64956e-005 1.05111e-005 9.84336e-006 -78.6817 19.4649 13.7995 17.0833 11.4185 -44.1627 -9.66117 -34.4525 -0.517375 -4.21056e-007 -4.86225e-008 -4.79717e-007 -2.80704e-007 -3.2415e-008 -3.19811e-007 -1.40352e-007 -1.62075e-008 -1.59906e-007 -4.21056e-007 -4.86225e-008 -4.79717e-007 -0.014602 -8.40467e-005 -7.58886e-007 -1.3271e-007 -6.53521e-007 -3.56438e-007 -4.21056e-007 -4.86225e-008 -4.79717e-007 -0.0187687 -0.00117541 5.89633e-005 -1.40353e-007 -1.61812e-008 -1.59907e-007 -4.21056e-007 -4.86225e-008 -4.79717e-007 -0.0123067 -0.00325124 0.000678845 -1.40356e-007 -1.61894e-008 -1.59903e-007 -4.21056e-007 -4.86225e-008 -4.79717e-007 -2.80704e-007 -3.2415e-008 -3.19811e-007 -1.40352e-007 -1.62075e-008 -1.59906e-007 2.13645e-005 -10.0022 5.44188e-006 35.2101 -40.0617 60.9554 8.85552 0.440227 127.282 -10.0001 -0.00087258 14.9991 9.25239e-007 -5.64617e-007 -6.81007e-007 9.25239e-007 -5.64617e-007 -6.81007e-007 9.25239e-007 -5.64617e-007 -6.81007e-007 9.25239e-007 -5.64617e-007 -6.81007e-007 0.0149777 -9.41829e-005 -2.79308e-007 9.25234e-007 -5.64706e-007 -6.80934e-007 9.25239e-007 -5.64617e-007 -6.81007e-007 0.0189878 -0.00118138 -6.20964e-005 9.25226e-007 -5.64728e-007 -6.80923e-007 9.25239e-007 -5.64617e-007 -6.81007e-007 0.0122955 -0.00325773 -0.000671166 9.25219e-007 -5.64683e-007 -6.80972e-007 9.25239e-007 -5.64617e-007 -6.81007e-007 9.25239e-007 -5.64617e-007 -6.81007e-007 9.25239e-007 -5.64617e-007 -6.81007e-007 -18.3353 -30.0241 -23.971 179.999 85.2525 177.265 -2.88493 22.0866 -1.26039 -2.35701e-006 -3.2548e-007 1.27695e-007 12.4091 -26.0481 7.8547 -0.114597 63.4462 11.4775 9.61084 43.5628 -4.63095 4.81786e-008 -6.33981e-008 -8.12864e-009 
26.1503 12.1459 0.503757 90.0018 -4.00327 90.0018 1.95201 2.98137 0.409106 3.89049 5.97483 0.71772 3.89051 5.97483 0.717733 -1.03937e-005 27.9975 3.50325e-005 1.88751e-006 15.997 -7.7412e-007 2.64956e-005 1.05111e-005 9.84336e-006 -78.6817 19.4649 13.7995 16.9596 11.5475 -43.9999 -10.0617 -33.5577 -0.623948 -9.22483e-007 -5.09754e-008 2.34524e-007 -1.06164e-006 -6.62447e-008 7.34793e-008 -1.71375e-006 9.54007e-006 -2.51642e-007 -9.22483e-007 -5.09754e-008 2.34524e-007 -0.0145884 -9.11976e-005 -7.65121e-007 -1.71366e-006 9.5401e-006 -2.50426e-007 -9.22483e-007 -5.09754e-008 2.34524e-007 -0.018769 -0.00117451 5.98158e-005 -1.71364e-006 9.54012e-006 -2.50062e-007 -9.22483e-007 -5.09754e-008 2.34524e-007 -0.0122404 -0.00324102 0.000675016 -1.71363e-006 9.54013e-006 -2.50579e-007 -9.22483e-007 -5.09754e-008 2.34524e-007 -1.06164e-006 -6.62447e-008 7.34793e-008 -1.71375e-006 9.54007e-006 -2.51642e-007 2.13645e-005 -10.0022 5.44188e-006 35.2101 -40.0617 60.9554 9.12046 0.641968 127.28 -10.0001 -0.000887306 14.9991 9.54166e-015 -6.75868e-015 -9.93923e-016 -9.23666e-007 5.63538e-007 6.83961e-007 3.18055e-015 3.57812e-015 -5.96354e-016 9.54166e-015 -6.75868e-015 -9.93923e-016 0.0149943 -9.4769e-005 -2.10684e-007 -3.18055e-015 -3.18055e-015 -2.18663e-015 9.54166e-015 -6.75868e-015 -9.93923e-016 0.0190312 -0.00118896 -6.22289e-005 -6.36111e-015 9.14409e-015 2.78299e-015 9.54166e-015 -6.75868e-015 -9.93923e-016 0.012232 -0.0032399 -0.000675075 -4.59322e-031 -1.47101e-014 -1.78906e-015 9.54166e-015 -6.75868e-015 -9.93923e-016 -9.23666e-007 5.63538e-007 6.83961e-007 3.18055e-015 3.57812e-015 -5.96354e-016 -17.9387 -30.2136 -23.506 179.999 85.2445 177.265 -2.88541 22.0797 -1.26101 -5.14635e-007 1.61591e-007 -4.20275e-006 12.4218 -26.0511 7.85717 -0.126275 63.5289 11.2517 9.62983 43.5686 -4.63808 -2.57429e-007 3.37847e-007 4.26744e-008 
